<svg xmlns="http://www.w3.org/2000/svg" xmlns:xlink="http://www.w3.org/1999/xlink" version="1.1" x="0px" y="0px" viewBox="0 0 100 100" enable-background="new 0 0 100 100" xml:space="preserve"><path d="M41.2,60.1l-8.4,24.6L24.4,60v-3.1C13.2,57,9.9,52.2,9.9,52.2s6.4-0.1,6-16.9c-0.4-16.8,7.3-19.6,10.2-20.7  c8.4-3.2,12.6,1.9,12.6,1.9c9.7-0.9,12.4,9.7,11.2,21.8c-1.2,12.1,5.5,14,5.5,14c-4.6,4.7-14.2,4.4-14.2,4.4v3.1h0L41.2,60.1z   M2.8,86.4h29.6h0.8h29.6c0.7,0,1.2-0.6,1.1-1.3l-1.7-9.4c-0.6-3-2.5-5.7-5.3-7l-10.6-5.3c-0.6-0.3-1.2-0.6-1.8-1l3.4,9.9L43.2,72  L32.8,84.7L22.5,72l-4.7,0.4l3.4-10.1l-2.1,1.3L8.7,68.6c-2.8,1.4-4.7,4-5.3,7l-1.7,9.4C1.5,85.7,2.1,86.4,2.8,86.4z M55.4,29.6  c0-8.2,6.6-14.8,14.8-14.8h13.4c8.2,0,14.8,6.6,14.8,14.8c0,8.2-6.6,14.8-14.8,14.8h-10l-6.8,6.8c-0.5,0.5-1.2,0.1-1.2-0.5v-7  C59.7,41.7,55.4,36.1,55.4,29.6z M70.5,28.2c0,1,0.4,1.9,1.1,2.6l4.9,4.9c0.1,0.1,0.2,0.2,0.4,0.2c0.1,0,0.3-0.1,0.4-0.2l4.9-4.9  c0.7-0.7,1.1-1.6,1.1-2.6c0-1-0.4-1.9-1.1-2.6c-0.7-0.7-1.6-1.1-2.6-1.1c-1,0-1.9,0.4-2.6,1.1l-0.2,0.2l-0.2-0.2  c-0.7-0.7-1.6-1.1-2.6-1.1c-1,0-1.9,0.4-2.6,1.1C70.9,26.3,70.5,27.2,70.5,28.2z"></path></svg>